<svg xmlns="http://www.w3.org/2000/svg" width="100" height="100" stroke-linecap="round" stroke-width="4" stroke="#EBEBF0" fill="none">
<circle cx="50" cy="50" r="4" />
<line x1="50" x2="50" y1="45" y2="10" />
<line x1="50" x2="60" y1="30" y2="15" />
<line x1="50" x2="40" y1="30" y2="15" />
<line x1="50" x2="50" y1="55" y2="90" />
<line x1="50" x2="60" y1="70" y2="85" />
<line x1="50" x2="40" y1="70" y2="85" />
<line x1="54" x2="85" y1="52" y2="70" />
<line x1="68" x2="85" y1="60" y2="60" />
<line x1="68" x2="75" y1="60" y2="75" />
<line x1="46" x2="15" y1="52" y2="70" />
<line x1="32" x2="15" y1="60" y2="60" />
<line x1="32" x2="25" y1="60" y2="75" />
<line x1="54" x2="85" y1="48" y2="30" />
<line x1="68" x2="85" y1="40" y2="40" />
<line x1="68" x2="75" y1="40" y2="25" />
<line x1="46" x2="15" y1="48" y2="30" />
<line x1="32" x2="15" y1="40" y2="40" />
<line x1="32" x2="25" y1="40" y2="25" />
</svg>